<?xml version="1.0" encoding="UTF-8" standalone="no"?><svg xmlns="http://www.w3.org/2000/svg" xmlns:xlink="http://www.w3.org/1999/xlink" fill="#002e24" height="54" preserveAspectRatio="xMidYMid meet" version="1" viewBox="4.9 23.0 90.2 54.0" width="90.2" zoomAndPan="magnify"><g id="change1_1"><path d="M50,33c-9.37,0-17,7.63-17,17s7.63,17,17,17s17-7.63,17-17S59.37,33,50,33z M50,63c-7.17,0-13-5.83-13-13 c0-7.17,5.83-13,13-13c7.17,0,13,5.83,13,13C63,57.17,57.17,63,50,63z M52,43c0,1.1-0.9,2-2,2c-2.76,0-5,2.24-5,5c0,1.1-0.9,2-2,2 s-2-0.9-2-2c0-4.96,4.04-9,9-9C51.1,41,52,41.9,52,43z M94.73,49C85.51,32.96,68.37,23,50,23c-18.37,0-35.51,9.96-44.73,26 c-0.35,0.62-0.35,1.38,0,1.99C14.49,67.04,31.63,77,50,77c18.37,0,35.51-9.96,44.73-26C95.09,50.38,95.09,49.62,94.73,49z M50,73 c-16.56,0-32.04-8.78-40.68-23C17.96,35.78,33.44,27,50,27c16.56,0,32.04,8.78,40.68,23C82.04,64.22,66.56,73,50,73z" fill="inherit"/></g></svg>