<?xml version="1.0" encoding="UTF-8" standalone="no"?><svg xmlns="http://www.w3.org/2000/svg" xmlns:xlink="http://www.w3.org/1999/xlink" data-name="Layer 1" fill="#000000" height="1011.4" preserveAspectRatio="xMidYMid meet" version="1" viewBox="8.1 7.2 1059.8 1011.4" width="1059.8" zoomAndPan="magnify"><g id="change1_1"><path d="M1063.45,535.33a55.57,55.57,0,0,0,4-19.64c0-.71.46-1.36.46-2.07s-.39-1.28-.46-2a49.9,49.9,0,0,0-14-34.83c-.89-1-1.21-2.35-2.14-3.31L606.79,29.08a56.8,56.8,0,0,0-80.33,80.32L873.92,456.86H68.2a56.78,56.78,0,1,0,0,113.55H873.92L526.46,918a56.8,56.8,0,1,0,80.33,80.32L1051.26,553.8c.93-.89,1.25-2.21,2.14-3.24A56.49,56.49,0,0,0,1063.45,535.33Z" data-name="Path 98" fill="#01493a"/></g></svg>