<?xml version="1.0" encoding="UTF-8" standalone="no"?><svg xmlns="http://www.w3.org/2000/svg" xmlns:xlink="http://www.w3.org/1999/xlink" fill="#000000" height="443.4" preserveAspectRatio="xMidYMid meet" version="1" viewBox="33.7 34.1 445.1 443.4" width="445.1" zoomAndPan="magnify"><g fill="#002e24" id="change1_1"><path d="M 247.414062 196.453125 C 251.648438 196.453125 255.074219 193.027344 255.074219 188.792969 C 255.074219 184.558594 251.648438 181.132812 247.414062 181.132812 C 201.871094 181.132812 164.8125 218.1875 164.8125 263.734375 C 164.8125 309.285156 201.871094 346.335938 247.414062 346.335938 C 292.957031 346.335938 330.015625 309.285156 330.015625 263.734375 C 330.015625 259.5 326.589844 256.074219 322.355469 256.074219 C 318.121094 256.074219 314.695312 259.5 314.695312 263.734375 C 314.695312 300.832031 284.519531 331.015625 247.414062 331.015625 C 210.3125 331.015625 180.132812 300.832031 180.132812 263.734375 C 180.132812 226.640625 210.3125 196.453125 247.414062 196.453125" fill="inherit"/><path d="M 247.414062 118.257812 C 167.207031 118.257812 101.945312 183.519531 101.945312 263.734375 C 101.945312 343.949219 167.207031 409.210938 247.414062 409.210938 C 327.621094 409.210938 392.882812 343.949219 392.882812 263.734375 C 392.882812 259.5 389.457031 256.074219 385.226562 256.074219 C 380.988281 256.074219 377.5625 259.5 377.5625 263.734375 C 377.5625 335.503906 319.183594 393.890625 247.414062 393.890625 C 175.644531 393.890625 117.265625 335.503906 117.265625 263.734375 C 117.265625 191.964844 175.644531 133.578125 247.414062 133.578125 C 251.648438 133.578125 255.074219 130.152344 255.074219 125.917969 C 255.074219 121.683594 251.648438 118.257812 247.414062 118.257812" fill="inherit"/><path d="M 453.476562 256.074219 C 449.242188 256.074219 445.816406 259.5 445.816406 263.734375 C 445.816406 373.132812 356.8125 462.136719 247.414062 462.136719 C 138.019531 462.136719 49.007812 373.132812 49.007812 263.734375 C 49.007812 154.328125 138.019531 65.324219 247.414062 65.324219 C 251.648438 65.324219 255.074219 61.898438 255.074219 57.664062 C 255.074219 53.429688 251.648438 50.003906 247.414062 50.003906 C 129.566406 50.003906 33.683594 145.886719 33.683594 263.734375 C 33.683594 381.585938 129.566406 477.457031 247.414062 477.457031 C 365.265625 477.457031 461.136719 381.585938 461.136719 263.734375 C 461.136719 259.5 457.710938 256.074219 453.476562 256.074219" fill="inherit"/><path d="M 408.21875 162.433594 L 369.894531 153.269531 L 417.613281 106.027344 L 455.558594 115.09375 Z M 350.425781 104.636719 L 397.761719 57.304688 L 406.800781 95.179688 L 359.382812 142.117188 Z M 478.03125 108.75 C 477.265625 106.078125 475.128906 104.023438 472.433594 103.378906 L 421.609375 91.230469 L 409.476562 40.421875 C 408.832031 37.722656 406.785156 35.589844 404.105469 34.835938 C 401.441406 34.078125 398.570312 34.8125 396.609375 36.785156 L 336.554688 96.835938 C 334.671875 98.71875 333.90625 101.441406 334.519531 104.03125 L 346.640625 154.730469 L 242.027344 258.289062 C 239.023438 261.265625 238.992188 266.113281 241.96875 269.121094 C 243.464844 270.640625 245.441406 271.394531 247.414062 271.394531 C 249.359375 271.394531 251.304688 270.65625 252.800781 269.179688 L 357.074219 165.957031 L 408.816406 178.328125 C 409.402344 178.472656 410 178.539062 410.597656 178.539062 C 412.605469 178.539062 414.5625 177.746094 416.015625 176.292969 L 476.070312 116.246094 C 478.03125 114.285156 478.777344 111.414062 478.03125 108.75" fill="inherit"/></g></svg>