<?xml version="1.0" encoding="UTF-8" standalone="no"?><svg xmlns="http://www.w3.org/2000/svg" xmlns:xlink="http://www.w3.org/1999/xlink" fill="#00bf63" height="950" preserveAspectRatio="xMidYMid meet" version="1" viewBox="0.0 0.0 910.6 950.0" width="910.6" zoomAndPan="magnify"><defs><clipPath id="a"><path d="M 0 0 L 910.648438 0 L 910.648438 950 L 0 950 Z M 0 0"/></clipPath></defs><g><g clip-path="url(#a)" id="change1_1"><path d="M 895.972656 643.277344 C 842.007812 535.851562 825.089844 495.234375 865.195312 337.558594 C 886.050781 240.953125 835.863281 113.355469 724.511719 109.332031 C 667.71875 108.621094 620.269531 147.167969 565.886719 157.730469 C 475.3125 175.085938 380.449219 151.332031 312.511719 85.398438 C 96.550781 -124.199219 -59.5625 91.71875 88.421875 306.652344 C 116.695312 347.71875 162.941406 400.972656 164.699219 443.726562 C 165.554688 464.503906 107.347656 498.582031 89.472656 510.4375 C -49.625 602.695312 -32.847656 874.386719 184.375 935.980469 C 302.320312 968.722656 430.125 945.019531 550.773438 855.347656 C 653.863281 778.726562 983.6875 842.574219 895.972656 643.277344"/></g></g></svg>